<?xml version="1.0" encoding="UTF-8"?>
<!DOCTYPE svg PUBLIC "-//W3C//DTD SVG 1.1//EN" "http://www.w3.org/Graphics/SVG/1.1/DTD/svg11.dtd">
<svg xmlns="http://www.w3.org/2000/svg" xmlns:xlink="http://www.w3.org/1999/xlink" version="1.1" width="662px" height="212px" viewBox="-0.5 -0.5 662 212" style="background-color: rgb(255, 255, 255);"><defs/><g><path d="M 166 36 L 166 19.5 Q 166 6 152.5 6 L 19.5 6 Q 6 6 6 19.5 L 6 36" fill="rgb(255, 255, 255)" stroke="rgb(0, 0, 0)" stroke-width="2" stroke-miterlimit="10" pointer-events="all"/><path d="M 6 36 L 6 172.5 Q 6 186 19.5 186 L 152.5 186 Q 166 186 166 172.5 L 166 36" fill="none" stroke="rgb(0, 0, 0)" stroke-width="2" stroke-miterlimit="10" pointer-events="none"/><path d="M 6 36 L 166 36" fill="none" stroke="rgb(0, 0, 0)" stroke-width="2" stroke-miterlimit="10" pointer-events="none"/><g fill="rgb(0, 0, 0)" font-family="Helvetica" pointer-events="none" text-anchor="middle" font-size="14px"><text x="85.5" y="26.5">Сотрудники</text></g><g fill="rgb(0, 0, 0)" font-family="Helvetica" pointer-events="none" font-size="14px"><text x="11.5" y="55.5">Код сотрудника</text><text x="11.5" y="72.5">Фамилия</text><text x="11.5" y="89.5">Имя</text><text x="11.5" y="106.5">Отчество</text><text x="11.5" y="123.5">Должность</text><text x="11.5" y="140.5">Телефон</text><text x="11.5" y="157.5">Адрес</text></g><path d="M 416 76 L 416 59.5 Q 416 46 402.5 46 L 269.5 46 Q 256 46 256 59.5 L 256 76" fill="rgb(255, 255, 255)" stroke="rgb(0, 0, 0)" stroke-width="2" stroke-miterlimit="10" pointer-events="none"/><path d="M 256 76 L 256 192.5 Q 256 206 269.5 206 L 402.5 206 Q 416 206 416 192.5 L 416 76" fill="none" stroke="rgb(0, 0, 0)" stroke-width="2" stroke-miterlimit="10" pointer-events="none"/><path d="M 256 76 L 416 76" fill="none" stroke="rgb(0, 0, 0)" stroke-width="2" stroke-miterlimit="10" pointer-events="none"/><g fill="rgb(0, 0, 0)" font-family="Helvetica" pointer-events="none" text-anchor="middle" font-size="14px"><text x="335.5" y="66.5">Заказы</text></g><g fill="rgb(0, 0, 0)" font-family="Helvetica" pointer-events="none" font-size="14px"><text x="261.5" y="95.5">Код заказа</text><text x="261.5" y="112.5">Код сотрудника</text><text x="261.5" y="129.5">Код клиента</text><text x="261.5" y="146.5">Дата размещения</text><text x="261.5" y="163.5">Дата исполнения</text><text x="261.5" y="180.5">Сумма</text></g><path d="M 656 36 L 656 19.5 Q 656 6 642.5 6 L 509.5 6 Q 496 6 496 19.5 L 496 36" fill="rgb(255, 255, 255)" stroke="rgb(0, 0, 0)" stroke-width="2" stroke-miterlimit="10" pointer-events="none"/><path d="M 496 36 L 496 172.5 Q 496 186 509.5 186 L 642.5 186 Q 656 186 656 172.5 L 656 36" fill="none" stroke="rgb(0, 0, 0)" stroke-width="2" stroke-miterlimit="10" pointer-events="none"/><path d="M 496 36 L 656 36" fill="none" stroke="rgb(0, 0, 0)" stroke-width="2" stroke-miterlimit="10" pointer-events="none"/><g fill="rgb(0, 0, 0)" font-family="Helvetica" pointer-events="none" text-anchor="middle" font-size="14px"><text x="575.5" y="26.5">Клиенты</text></g><g fill="rgb(0, 0, 0)" font-family="Helvetica" pointer-events="none" font-size="14px"><text x="501.5" y="55.5">Код клиента</text><text x="501.5" y="72.5">Название компании</text><text x="501.5" y="89.5">Адрес</text><text x="501.5" y="106.5">Телефон</text><text x="501.5" y="123.5">Факс</text><text x="501.5" y="140.5">Почта</text><text x="501.5" y="157.5">Заметки</text></g><path d="M 168.4 57.3 L 198.4 57.3 L 226 108.5 L 256 108.5" fill="none" stroke="rgb(0, 0, 0)" stroke-miterlimit="10" pointer-events="none"/><path d="M 248 112.5 L 248 104.5 M 256 104.5 L 248 108.5 L 256 112.5" fill="none" stroke="rgb(0, 0, 0)" stroke-miterlimit="10" pointer-events="none"/><path d="M 496.48 56.25 L 466.48 56.25 L 376.08 126.05 L 346.08 126.05" fill="none" stroke="rgb(0, 0, 0)" stroke-miterlimit="10" pointer-events="none"/><path d="M 354.08 122.05 L 354.08 130.05 M 346.08 130.05 L 354.08 126.05 L 346.08 122.05" fill="none" stroke="rgb(0, 0, 0)" stroke-miterlimit="10" pointer-events="none"/></g></svg>